# MagicaVoxel @ Ephtracy

# group
o 

# material
mtllib voxel_money.mtl
usemtl palette

# normals
vn -1 0 0
vn 1 0 0
vn 0 0 1
vn 0 0 -1
vn 0 -1 0
vn 0 1 0

# texcoords
vt 0.888672 0.5
vt 0.892578 0.5
vt 0.896484 0.5
vt 0.900391 0.5
vt 0.962891 0.5

# verts
v -0.4 0.1 0.4
v -0.4 0.1 -0.2
v -0.4 0.2 0.4
v -0.4 0.2 -0.2
v -0.4 0.3 0.4
v -0.4 0.3 -0.2
v -0.4 0.4 0.4
v -0.4 0.4 -0.2
v 0.5 0.1 0.4
v 0.5 0.1 -0.2
v 0.5 0.2 0.4
v 0.5 0.2 -0.2
v 0.5 0.3 0.4
v 0.5 0.3 -0.2
v 0.5 0.4 0.4
v 0.5 0.4 -0.2
v -0.4 0.1 0.4
v -0.4 0.2 0.4
v -0.4 0.3 0.4
v -0.4 0.4 0.4
v 0 0.1 0.4
v 0 0.2 0.4
v 0 0.3 0.4
v 0 0.4 0.4
v 0.1 0.1 0.4
v 0.1 0.2 0.4
v 0.1 0.3 0.4
v 0.1 0.4 0.4
v 0.5 0.1 0.4
v 0.5 0.2 0.4
v 0.5 0.3 0.4
v 0.5 0.4 0.4
v -0.4 0.1 -0.2
v -0.4 0.2 -0.2
v -0.4 0.3 -0.2
v -0.4 0.4 -0.2
v 0 0.1 -0.2
v 0 0.2 -0.2
v 0 0.3 -0.2
v 0 0.4 -0.2
v 0.1 0.1 -0.2
v 0.1 0.2 -0.2
v 0.1 0.3 -0.2
v 0.1 0.4 -0.2
v 0.5 0.1 -0.2
v 0.5 0.2 -0.2
v 0.5 0.3 -0.2
v 0.5 0.4 -0.2
v -0.4 0.1 0.4
v 0 0.1 0.4
v 0.1 0.1 0.4
v 0.5 0.1 0.4
v -0.2 0.1 0.3
v 0 0.1 0.3
v 0.1 0.1 0.3
v 0.3 0.1 0.3
v -0.3 0.1 0.2
v -0.2 0.1 0.2
v -0.1 0.1 0.2
v 0 0.1 0.2
v 0.1 0.1 0.2
v 0.2 0.1 0.2
v 0.3 0.1 0.2
v 0.4 0.1 0.2
v -0.3 0.1 0
v -0.2 0.1 0
v -0.1 0.1 0
v 0 0.1 0
v 0.1 0.1 0
v 0.2 0.1 0
v 0.3 0.1 0
v 0.4 0.1 0
v -0.2 0.1 -0.1
v 0 0.1 -0.1
v 0.1 0.1 -0.1
v 0.3 0.1 -0.1
v -0.4 0.1 -0.2
v 0 0.1 -0.2
v 0.1 0.1 -0.2
v 0.5 0.1 -0.2
v -0.4 0.4 0.4
v 0 0.4 0.4
v 0.1 0.4 0.4
v 0.5 0.4 0.4
v -0.2 0.4 0.3
v 0 0.4 0.3
v 0.1 0.4 0.3
v 0.3 0.4 0.3
v -0.3 0.4 0.2
v -0.2 0.4 0.2
v -0.1 0.4 0.2
v 0 0.4 0.2
v 0.1 0.4 0.2
v 0.2 0.4 0.2
v 0.3 0.4 0.2
v 0.4 0.4 0.2
v -0.3 0.4 0
v -0.2 0.4 0
v -0.1 0.4 0
v 0 0.4 0
v 0.1 0.4 0
v 0.2 0.4 0
v 0.3 0.4 0
v 0.4 0.4 0
v -0.2 0.4 -0.1
v 0 0.4 -0.1
v 0.1 0.4 -0.1
v 0.3 0.4 -0.1
v -0.4 0.4 -0.2
v 0 0.4 -0.2
v 0.1 0.4 -0.2
v 0.5 0.4 -0.2

# faces
f 3/4/1 2/4/1 1/4/1
f 4/4/1 2/4/1 3/4/1
f 5/3/1 4/3/1 3/3/1
f 6/3/1 4/3/1 5/3/1
f 7/2/1 6/2/1 5/2/1
f 8/2/1 6/2/1 7/2/1
f 9/4/2 10/4/2 11/4/2
f 11/4/2 10/4/2 12/4/2
f 11/3/2 12/3/2 13/3/2
f 13/3/2 12/3/2 14/3/2
f 13/2/2 14/2/2 15/2/2
f 15/2/2 14/2/2 16/2/2
f 21/4/3 18/4/3 17/4/3
f 22/3/3 19/3/3 18/3/3
f 22/4/3 18/4/3 21/4/3
f 23/2/3 20/2/3 19/2/3
f 23/3/3 19/3/3 22/3/3
f 24/2/3 20/2/3 23/2/3
f 25/5/3 22/5/3 21/5/3
f 25/5/3 23/5/3 22/5/3
f 25/5/3 24/5/3 23/5/3
f 26/5/3 24/5/3 25/5/3
f 27/5/3 24/5/3 26/5/3
f 28/5/3 24/5/3 27/5/3
f 29/4/3 26/4/3 25/4/3
f 30/3/3 27/3/3 26/3/3
f 30/4/3 26/4/3 29/4/3
f 31/2/3 28/2/3 27/2/3
f 31/3/3 27/3/3 30/3/3
f 32/2/3 28/2/3 31/2/3
f 33/4/4 34/4/4 37/4/4
f 34/3/4 35/3/4 38/3/4
f 37/4/4 34/4/4 38/4/4
f 35/2/4 36/2/4 39/2/4
f 38/3/4 35/3/4 39/3/4
f 39/2/4 36/2/4 40/2/4
f 37/5/4 38/5/4 41/5/4
f 38/5/4 39/5/4 41/5/4
f 39/5/4 40/5/4 41/5/4
f 41/5/4 40/5/4 42/5/4
f 42/5/4 40/5/4 43/5/4
f 43/5/4 40/5/4 44/5/4
f 41/4/4 42/4/4 45/4/4
f 42/3/4 43/3/4 46/3/4
f 45/4/4 42/4/4 46/4/4
f 43/2/4 44/2/4 47/2/4
f 46/3/4 43/3/4 47/3/4
f 47/2/4 44/2/4 48/2/4
f 53/4/5 50/4/5 49/4/5
f 54/5/5 51/5/5 50/5/5
f 54/4/5 50/4/5 53/4/5
f 55/4/5 52/4/5 51/4/5
f 55/5/5 51/5/5 54/5/5
f 56/4/5 52/4/5 55/4/5
f 57/4/5 53/4/5 49/4/5
f 58/3/5 54/3/5 53/3/5
f 58/4/5 53/4/5 57/4/5
f 59/3/5 54/3/5 58/3/5
f 60/5/5 55/5/5 54/5/5
f 60/3/5 54/3/5 59/3/5
f 61/3/5 56/3/5 55/3/5
f 61/5/5 55/5/5 60/5/5
f 62/3/5 56/3/5 61/3/5
f 63/4/5 52/4/5 56/4/5
f 63/3/5 56/3/5 62/3/5
f 64/4/5 52/4/5 63/4/5
f 65/4/5 57/4/5 49/4/5
f 65/3/5 59/3/5 58/3/5
f 65/3/5 58/3/5 57/3/5
f 66/3/5 59/3/5 65/3/5
f 67/4/5 60/4/5 59/4/5
f 67/3/5 59/3/5 66/3/5
f 68/5/5 61/5/5 60/5/5
f 68/4/5 60/4/5 67/4/5
f 69/4/5 62/4/5 61/4/5
f 69/5/5 61/5/5 68/5/5
f 70/3/5 64/3/5 63/3/5
f 70/4/5 62/4/5 69/4/5
f 70/3/5 63/3/5 62/3/5
f 71/3/5 64/3/5 70/3/5
f 72/4/5 52/4/5 64/4/5
f 72/3/5 64/3/5 71/3/5
f 73/3/5 68/3/5 67/3/5
f 73/4/5 66/4/5 65/4/5
f 73/3/5 67/3/5 66/3/5
f 74/5/5 69/5/5 68/5/5
f 74/3/5 68/3/5 73/3/5
f 75/3/5 71/3/5 70/3/5
f 75/5/5 69/5/5 74/5/5
f 75/3/5 70/3/5 69/3/5
f 76/4/5 72/4/5 71/4/5
f 76/3/5 71/3/5 75/3/5
f 77/4/5 74/4/5 73/4/5
f 77/4/5 73/4/5 65/4/5
f 77/4/5 65/4/5 49/4/5
f 78/5/5 75/5/5 74/5/5
f 78/4/5 74/4/5 77/4/5
f 79/4/5 76/4/5 75/4/5
f 79/5/5 75/5/5 78/5/5
f 80/4/5 72/4/5 76/4/5
f 80/4/5 76/4/5 79/4/5
f 80/4/5 52/4/5 72/4/5
f 81/2/6 82/2/6 85/2/6
f 82/5/6 83/5/6 86/5/6
f 85/2/6 82/2/6 86/2/6
f 83/2/6 84/2/6 87/2/6
f 86/5/6 83/5/6 87/5/6
f 87/2/6 84/2/6 88/2/6
f 81/2/6 85/2/6 89/2/6
f 85/1/6 86/1/6 90/1/6
f 89/2/6 85/2/6 90/2/6
f 90/1/6 86/1/6 91/1/6
f 86/5/6 87/5/6 92/5/6
f 91/1/6 86/1/6 92/1/6
f 87/1/6 88/1/6 93/1/6
f 92/5/6 87/5/6 93/5/6
f 93/1/6 88/1/6 94/1/6
f 88/2/6 84/2/6 95/2/6
f 94/1/6 88/1/6 95/1/6
f 95/2/6 84/2/6 96/2/6
f 81/2/6 89/2/6 97/2/6
f 90/1/6 91/1/6 97/1/6
f 89/1/6 90/1/6 97/1/6
f 97/1/6 91/1/6 98/1/6
f 91/2/6 92/2/6 99/2/6
f 98/1/6 91/1/6 99/1/6
f 92/5/6 93/5/6 100/5/6
f 99/2/6 92/2/6 100/2/6
f 93/2/6 94/2/6 101/2/6
f 100/5/6 93/5/6 101/5/6
f 95/1/6 96/1/6 102/1/6
f 101/2/6 94/2/6 102/2/6
f 94/1/6 95/1/6 102/1/6
f 102/1/6 96/1/6 103/1/6
f 96/2/6 84/2/6 104/2/6
f 103/1/6 96/1/6 104/1/6
f 99/1/6 100/1/6 105/1/6
f 97/2/6 98/2/6 105/2/6
f 98/1/6 99/1/6 105/1/6
f 100/5/6 101/5/6 106/5/6
f 105/1/6 100/1/6 106/1/6
f 102/1/6 103/1/6 107/1/6
f 106/5/6 101/5/6 107/5/6
f 101/1/6 102/1/6 107/1/6
f 103/2/6 104/2/6 108/2/6
f 107/1/6 103/1/6 108/1/6
f 105/2/6 106/2/6 109/2/6
f 97/2/6 105/2/6 109/2/6
f 81/2/6 97/2/6 109/2/6
f 106/5/6 107/5/6 110/5/6
f 109/2/6 106/2/6 110/2/6
f 107/2/6 108/2/6 111/2/6
f 110/5/6 107/5/6 111/5/6
f 108/2/6 104/2/6 112/2/6
f 111/2/6 108/2/6 112/2/6
f 104/2/6 84/2/6 112/2/6
